<svg width="34" height="12" viewBox="0 0 34 12" fill="none" xmlns="http://www.w3.org/2000/svg">
<g clip-path="url(#clip0_20_149)">
<path d="M0.92041 4.18996V5.8204L5.67311 5.33659V3.57189L0.92041 4.18996ZM2.43708 5.91958V11.5066H4.17709V5.75501L2.43708 5.91958ZM6.31499 3.48843V11.5066H8.14847V3.24986L6.31499 3.48843ZM8.49007 3.2054V5.04991L11.1376 4.78034V2.86114L8.49007 3.2054ZM8.49007 6.42276V8.30086L10.228 8.21315V6.28433L8.49007 6.42276ZM8.49007 9.65468V11.5066H11.1376V9.58074L8.49007 9.65468ZM17.9845 1.96776V11.5066H20.388V1.65512L17.9845 1.96776ZM20.8369 1.59667V3.79082L24.3396 3.43441V1.14099L20.8369 1.59667ZM20.8369 5.44098V7.67577L23.1327 7.55975V5.25904L20.8369 5.44098ZM20.8369 9.30924V11.5066H24.3396V9.21136L20.8369 9.30924ZM11.8381 2.76987V11.5066H13.9266V2.49812L11.8381 2.76987ZM14.3165 9.49197V11.5065H17.3481V9.40727L14.3165 9.49197ZM32.1926 1.03312C31.4329 0.368931 30.3191 0.0964959 29.1008 0.258463V2.69205C29.5942 2.66669 29.9939 2.83613 30.1721 3.17725C30.4533 3.71509 30.1631 4.52206 29.4786 5.26972C28.4222 6.42346 25.6129 8.78498 25.6129 8.78498L29.6458 8.66226C32.11 6.43431 32.9949 5.08196 33.1537 3.39411C33.2371 2.50117 32.8869 1.64079 32.1926 1.03312ZM33.2958 11.5066V8.96019L25.1158 9.18825L33.2958 11.5066ZM25.1158 9.18817L25.1166 11.5065H33.2958L25.1158 9.18817ZM28.6306 0.313089C26.2543 0.781447 25.0873 2.39938 25.222 5.0394L27.7557 4.83132C27.6403 3.33983 28.1333 2.98602 28.6318 2.79149L28.6306 0.313089Z" fill="white"/>
</g>
<defs>
<clipPath id="clip0_20_149">
<rect width="32.3754" height="11.2937" fill="white" transform="translate(0.92041 0.212891)"/>
</clipPath>
</defs>
</svg>
