<svg width="31" height="13" viewBox="0 0 31 13" fill="none" xmlns="http://www.w3.org/2000/svg">
<g clip-path="url(#clip0_20_121)">
<path d="M5.87519 2.38954C5.52222 2.79645 4.95747 3.11738 4.39272 3.07153C4.32212 2.52135 4.59862 1.93679 4.92217 1.57573C5.27514 1.15736 5.89283 0.85935 6.39288 0.836426C6.45171 1.40953 6.22227 1.97117 5.87519 2.38954ZM6.387 3.18042C5.56928 3.13457 4.86922 3.63318 4.48096 3.63318C4.08681 3.63318 3.49264 3.20334 2.84554 3.21481C2.00429 3.22627 1.22187 3.69049 0.792428 4.42979C-0.0899966 5.9084 0.562997 8.09766 1.41601 9.30115C1.83369 9.89724 2.33373 10.5505 2.9926 10.5277C3.61618 10.5047 3.86326 10.1321 4.61627 10.1321C5.37515 10.1321 5.59281 10.5277 6.25169 10.5161C6.9341 10.5047 7.36354 9.92013 7.78122 9.32412C8.25775 8.64785 8.45185 7.98876 8.4636 7.95438C8.45185 7.94292 7.14588 7.45578 7.13411 5.98863C7.12234 4.76219 8.16363 4.17762 8.21069 4.14324C7.62239 3.29504 6.70467 3.20334 6.387 3.18042ZM11.1109 1.51842V10.4531H12.5345V7.39847H14.5053C16.3054 7.39847 17.5703 6.19495 17.5703 4.45271C17.5703 2.71048 16.329 1.51842 14.5523 1.51842H11.1109ZM12.5345 2.68755H14.1759C15.4113 2.68755 16.1172 3.32943 16.1172 4.45845C16.1172 5.58746 15.4113 6.23506 14.1699 6.23506H12.5345V2.68755ZM20.1705 10.5219C21.0646 10.5219 21.8941 10.0806 22.2706 9.38141H22.3001V10.4531H23.6178V6.00582C23.6178 4.71634 22.5589 3.88534 20.9293 3.88534C19.4175 3.88534 18.2997 4.7278 18.2586 5.88547H19.541C19.6469 5.33529 20.1705 4.97424 20.8881 4.97424C21.7588 4.97424 22.2471 5.36968 22.2471 6.09752V6.59039L20.4705 6.69355C18.8174 6.79098 17.9232 7.45004 17.9232 8.59627C17.9232 9.75396 18.8468 10.5219 20.1705 10.5219ZM20.5529 9.46168C19.7939 9.46168 19.3115 9.1063 19.3115 8.56187C19.3115 8.00023 19.7763 7.67356 20.6646 7.62198L22.2471 7.52455V8.02888C22.2471 8.86559 21.5176 9.46168 20.5529 9.46168ZM25.3768 12.8831C26.7651 12.8831 27.4181 12.3673 27.9887 10.8027L30.4889 3.9713H29.0418L27.3652 9.24958H27.3357L25.6591 3.9713H24.1708L26.5827 10.476L26.4533 10.8715C26.2356 11.542 25.8827 11.7999 25.2532 11.7999C25.1414 11.7999 24.9238 11.7884 24.8355 11.777V12.8487C24.9179 12.8716 25.2709 12.8831 25.3768 12.8831Z" fill="white"/>
</g>
<defs>
<clipPath id="clip0_20_121">
<rect width="30.1166" height="12.0466" fill="white" transform="translate(0.372314 0.836426)"/>
</clipPath>
</defs>
</svg>
