<svg width="15" height="14" viewBox="0 0 15 14" fill="none" xmlns="http://www.w3.org/2000/svg">
<g clip-path="url(#clip0_20_119)">
<path d="M11.5958 8.61606C11.8314 8.70378 11.922 9.04522 11.94 9.19415C11.9764 9.46588 11.895 9.57098 11.8043 9.57098C11.7138 9.57098 11.5868 9.46588 11.4511 9.25566C11.3152 9.04522 11.2609 8.80888 11.3335 8.68608C11.3786 8.6071 11.4779 8.57224 11.5958 8.61606ZM10.2194 9.60615C10.3645 9.60615 10.5274 9.66736 10.6723 9.78993C10.9529 10.0178 11.0346 10.2805 10.8896 10.4734C10.808 10.5697 10.6723 10.631 10.5184 10.631C10.3645 10.631 10.2015 10.5785 10.0928 10.4821C9.83922 10.2719 9.76687 9.92117 9.92957 9.72864C9.9932 9.64966 10.0928 9.60615 10.2194 9.60615ZM7.05023 12.1378C3.60881 12.1378 0.819824 9.43945 0.819824 6.11052C0.819824 2.78157 3.6091 0.0834961 7.04994 0.0834961C10.4911 0.0834961 13.2803 2.78184 13.2803 6.11052C13.2803 7.24051 12.9544 8.30082 12.4022 9.20311C12.3839 9.22931 12.3386 9.22058 12.3296 9.18542C12.1123 7.70503 11.1796 6.89008 9.82123 6.64502C9.70325 6.62732 9.68525 6.55734 9.83922 6.53992C10.2558 6.50479 10.8443 6.51351 11.1522 6.56605C11.1702 6.41712 11.1796 6.25947 11.1796 6.10181C11.1796 3.90284 9.33206 2.11556 7.05896 2.11556C4.78616 2.11556 2.93866 3.90284 2.93866 6.10181C2.93866 8.30082 4.78616 10.0881 7.05923 10.0881H7.24922C7.18468 9.73241 7.15733 9.37131 7.16759 9.01036C7.17688 8.76506 7.23121 8.7299 7.33985 8.92265C7.91037 9.87757 8.72551 10.7361 10.3191 11.0778C11.6231 11.3583 12.9271 11.6823 14.3307 13.4081C14.4574 13.557 14.2674 13.7147 14.1225 13.5921C12.6918 12.3654 11.3878 11.9625 10.2015 11.9625C8.87015 11.9714 7.96498 12.1378 7.05023 12.1378Z" fill="#FF8C00"/>
</g>
<defs>
<clipPath id="clip0_20_119">
<rect width="13.5525" height="13.5525" fill="white" transform="translate(0.819824 0.0834961)"/>
</clipPath>
</defs>
</svg>
