<svg width="33" height="12" viewBox="0 0 33 12" fill="none" xmlns="http://www.w3.org/2000/svg">
<g clip-path="url(#clip0_20_108)">
<path d="M14.3129 10.9784H11.7513L13.3535 0.774658H15.915L14.3129 10.9784Z" fill="#0064B8"/>
<path d="M23.5991 1.02377C23.0938 0.817312 22.2924 0.589355 21.3015 0.589355C18.7717 0.589355 16.9903 1.97873 16.9794 3.96513C16.9584 5.43068 18.2549 6.24469 19.2245 6.73336C20.2155 7.2327 20.5525 7.55861 20.5525 8.00371C20.5424 8.68726 19.7516 9.00236 19.0141 9.00236C17.9913 9.00236 17.4434 8.83995 16.6106 8.45966L16.2733 8.29657L15.9148 10.5871C16.5156 10.8691 17.6226 11.1192 18.7717 11.1302C21.4596 11.1302 23.2095 9.76227 23.2302 7.64547C23.2404 6.4839 22.5559 5.59386 21.08 4.86657C20.1841 4.39969 19.6353 4.08488 19.6353 3.60718C19.6459 3.17291 20.0994 2.7281 21.1108 2.7281C21.9436 2.70632 22.5554 2.91249 23.019 3.1188L23.2507 3.22716L23.5991 1.02377Z" fill="#0064B8"/>
<path d="M27.0036 7.36361C27.2145 6.77741 28.0263 4.50867 28.0263 4.50867C28.0156 4.53046 28.2368 3.91166 28.3633 3.53177L28.5424 4.41099C28.5424 4.41099 29.0275 6.85345 29.1328 7.36361C28.7324 7.36361 27.5095 7.36361 27.0036 7.36361ZM30.1656 0.774658H28.1841C27.5731 0.774658 27.1089 0.959043 26.8453 1.62127L23.0403 10.9783H25.7281C25.7281 10.9783 26.1707 9.71888 26.2658 9.44768C26.5606 9.44768 29.1753 9.44768 29.5547 9.44768C29.6282 9.80592 29.8603 10.9783 29.8603 10.9783H32.2322L30.1656 0.774658Z" fill="#0064B8"/>
<path d="M9.61181 0.774658L7.10313 7.73267L6.82899 6.3215C6.36519 4.6932 4.9106 2.92408 3.28735 2.04444L5.58522 10.9676H8.29405L12.3206 0.774658H9.61181Z" fill="#0064B8"/>
<path d="M4.77346 0.774658H0.652027L0.609863 0.980828C3.82484 1.82759 5.95405 3.86866 6.82885 6.32193L5.9329 1.63238C5.78539 0.980685 5.3321 0.796155 4.77346 0.774658Z" fill="#FAA61A"/>
</g>
<defs>
<clipPath id="clip0_20_108">
<rect width="31.6224" height="10.5408" fill="white" transform="translate(0.609863 0.589355)"/>
</clipPath>
</defs>
</svg>
