<svg width="30" height="14" viewBox="0 0 30 14" fill="none" xmlns="http://www.w3.org/2000/svg">
<g clip-path="url(#clip0_20_123)">
<path d="M7.02527 13.2596V6.76049H8.08745V7.23792C8.23352 7.00469 8.51932 6.83876 8.74317 6.76519C8.96866 6.69162 9.20049 6.65405 9.43863 6.65405C10.0261 6.65405 10.6532 6.84972 11.1629 7.37097C11.6329 7.85309 11.8821 8.44007 11.8821 9.13509C11.8821 9.4544 11.8202 9.76746 11.6963 10.0695C11.5773 10.3717 11.4058 10.6378 11.1867 10.86C10.9549 11.0995 10.6913 11.2795 10.4008 11.4017C10.1118 11.5222 9.84031 11.5848 9.48622 11.5848C9.22744 11.5848 8.97815 11.5456 8.74317 11.4642C8.51134 11.3907 8.18751 11.2076 8.06998 11.0056V13.2581H7.02527V13.2596ZM9.4037 7.57759C9.01625 7.57759 8.67811 7.69656 8.40179 7.97675C8.11922 8.26788 8.00807 8.68424 8.00807 9.0991C8.00807 9.54046 8.11448 9.97098 8.39073 10.2621C8.66855 10.5548 9.0115 10.6566 9.4116 10.6566C9.81652 10.6566 10.1452 10.4938 10.3944 10.2449C10.6818 9.9569 10.8168 9.56711 10.8168 9.14601C10.8168 8.68583 10.6786 8.27729 10.4008 7.9877C10.1642 7.73725 9.8181 7.57759 9.4037 7.57759Z" fill="white"/>
<path d="M19.1634 13.2597L20.0605 11.2107L18.0044 6.7605H19.1238L20.5844 10.1009L21.9324 6.7605H23.0581L20.2637 13.2597H19.1634Z" fill="white"/>
<path d="M16.3182 11.5003V11.0088C16.2007 11.2092 15.8768 11.3939 15.645 11.4674C15.4084 11.5488 15.1576 11.588 14.902 11.588C14.5463 11.588 14.2764 11.5269 13.9859 11.4048C13.6969 11.2828 13.4333 11.1012 13.2015 10.8616C12.9808 10.641 12.8094 10.3733 12.6918 10.0727C12.568 9.76909 12.5045 9.45754 12.5045 9.13823C12.5045 8.44329 12.7538 7.85626 13.2254 7.37415C13.7366 6.85133 14.3638 6.65723 14.9512 6.65723C15.1878 6.65723 15.4196 6.6948 15.645 6.76836C15.8705 6.84193 16.1563 7.00786 16.3024 7.24109V6.76367H17.3629V11.5034H16.3182V11.5003ZM13.9859 7.98774C13.708 8.27892 13.5715 8.68746 13.5715 9.14606C13.5715 9.56558 13.708 9.95687 13.9938 10.2449C14.2431 10.4938 14.5717 10.6566 14.9766 10.6566C15.3767 10.6566 15.718 10.5548 15.9959 10.2622C16.2738 9.97103 16.3786 9.54051 16.3786 9.09915C16.3786 8.68429 16.269 8.26951 15.988 7.97679C15.7085 7.69503 15.3719 7.57764 14.9861 7.57764C14.5686 7.57764 14.2256 7.73729 13.9859 7.98774Z" fill="white"/>
<path d="M24.1713 3.75344L24.1173 0.588379H25.1303V4.58149H23.6728L22.6646 1.30372H22.6392L22.6964 4.58149H21.6913V0.588379H23.2076L24.1491 3.75344H24.1713Z" fill="white"/>
<path d="M5.77123 0.960924L5.21235 4.61749H4.10889L4.86464 0.588379H6.68576L7.44152 4.61749H6.34122L5.79505 0.960924H5.77123Z" fill="white"/>
<path d="M10.539 3.67204L11.0455 0.588379H12.711L12.8031 4.61749H11.779L11.7504 0.995361H11.7298L11.0471 4.61749H10.0119L9.32597 0.995361H9.30218L9.27673 4.61749H8.25427L8.34794 0.588379H10.015L10.5184 3.67204H10.539Z" fill="white"/>
<path d="M19.1127 4.01329C19.4 4.01329 19.4858 3.82075 19.5064 3.7237C19.5144 3.67987 19.5144 3.62196 19.5144 3.56873V0.588379H20.5527V3.47795C20.5527 3.55308 20.5448 3.70335 20.5416 3.74405C20.4718 4.49697 19.8653 4.73802 19.1127 4.73802C18.3617 4.73802 17.7584 4.49697 17.6885 3.74405C17.6838 3.70335 17.6758 3.55308 17.6789 3.47795V0.588379H18.7142V3.5703C18.711 3.62196 18.7158 3.68144 18.7221 3.72527C18.7412 3.82232 18.8301 4.01329 19.1127 4.01329Z" fill="white"/>
<path d="M2.3861 3.48101C2.42421 3.57963 2.41309 3.70485 2.39404 3.77999C2.3607 3.91461 2.26861 4.05235 1.99393 4.05235C1.7399 4.05235 1.58589 3.90678 1.58589 3.68607L1.58271 3.29474H0.48877V3.60624C0.48877 4.50629 1.20483 4.7771 1.9717 4.7771C2.71476 4.7771 3.32286 4.52978 3.41812 3.85825C3.46893 3.50919 3.43241 3.28065 3.41495 3.19613C3.24347 2.3493 1.68909 2.10197 1.57319 1.62925C1.55254 1.54629 1.55731 1.46333 1.56842 1.41793C1.60018 1.28332 1.68909 1.144 1.94312 1.144C2.18446 1.144 2.32576 1.29271 2.32576 1.50715V1.75917H3.34667V1.47585C3.34667 0.596143 2.54487 0.459961 1.96535 0.459961C1.23976 0.459961 0.644366 0.697888 0.536401 1.35689C0.507822 1.53533 0.504647 1.69499 0.54434 1.89848C0.722165 2.72341 2.17652 2.95977 2.3861 3.48101Z" fill="white"/>
<path d="M15.6818 3.47637C15.723 3.57186 15.7056 3.69552 15.6897 3.77066C15.658 3.90214 15.5643 4.03676 15.296 4.03676C15.0419 4.03676 14.8895 3.89275 14.8895 3.67517V3.28697H13.8019V3.59691C13.8019 4.48914 14.5132 4.75367 15.2753 4.75367C16.0041 4.75367 16.6074 4.50949 16.7043 3.84266C16.7535 3.49829 16.7169 3.27288 16.6995 3.18523C16.5296 2.35092 14.9927 2.1036 14.88 1.63401C14.8593 1.55574 14.8657 1.47121 14.8736 1.42738C14.9006 1.29903 14.9895 1.15971 15.2436 1.15971C15.4833 1.15971 15.6215 1.30372 15.6215 1.5166V1.76549H16.6296V1.48686C16.6296 0.618116 15.8374 0.481934 15.2674 0.481934C14.5465 0.481934 13.9559 0.7136 13.8527 1.3679C13.8193 1.54322 13.8162 1.70132 13.8607 1.90481C14.0353 2.72346 15.4738 2.95826 15.6818 3.47637Z" fill="white"/>
<path d="M27.6436 3.97254C27.9374 3.97254 28.0421 3.79096 28.0613 3.68139C28.0676 3.636 28.0708 3.57808 28.0708 3.52799V2.94413H27.6532V2.35401H29.1012V3.4372C29.1012 3.51234 29.098 3.56869 29.0869 3.70331C29.0186 4.43274 28.3724 4.69884 27.6469 4.69884C26.9244 4.69884 26.2798 4.43274 26.2147 3.70331C26.1989 3.56869 26.1989 3.51234 26.1989 3.4372V1.7404C26.1989 1.66839 26.2068 1.54005 26.2179 1.47587C26.3068 0.718253 26.9244 0.47876 27.6484 0.47876C28.374 0.47876 29.0123 0.715122 29.0853 1.47587C29.1012 1.59953 29.0933 1.7404 29.0933 1.7404L29.0949 1.87189H28.0644V1.64648C28.0644 1.64648 28.0644 1.54943 28.0501 1.49152C28.0327 1.40542 27.9533 1.20037 27.6405 1.20037C27.3467 1.20037 27.2578 1.39447 27.2356 1.49152C27.2229 1.54474 27.2197 1.61831 27.2197 1.68405V3.52799C27.2197 3.57965 27.2229 3.636 27.2276 3.68139C27.2435 3.79096 27.3452 3.97254 27.6436 3.97254Z" fill="white"/>
</g>
<defs>
<clipPath id="clip0_20_123">
<rect width="28.6108" height="12.7996" fill="white" transform="translate(0.48877 0.459961)"/>
</clipPath>
</defs>
</svg>
