<svg width="23" height="14" viewBox="0 0 23 14" fill="none" xmlns="http://www.w3.org/2000/svg">
<g clip-path="url(#clip0_20_114)">
<path d="M14.5796 1.53271H8.47229V12.1865H14.5796V1.53271Z" fill="#FF5F00"/>
<path d="M8.85999 6.85974C8.85999 4.6951 9.90699 2.77517 11.5162 1.53286C10.3335 0.629362 8.84064 0.0834961 7.21199 0.0834961C3.3537 0.0834961 0.232178 3.11398 0.232178 6.85974C0.232178 10.6055 3.3537 13.636 7.21199 13.636C8.84064 13.636 10.3335 13.0901 11.5162 12.1866C9.90699 10.9631 8.85999 9.02437 8.85999 6.85974Z" fill="#EB001B"/>
<path d="M22.8195 6.85974C22.8195 10.6055 19.6979 13.636 15.8396 13.636C14.211 13.636 12.7181 13.0901 11.5354 12.1866C13.164 10.9443 14.1916 9.02437 14.1916 6.85974C14.1916 4.6951 13.1446 2.77517 11.5354 1.53286C12.7181 0.629362 14.211 0.0834961 15.8396 0.0834961C19.6979 0.0834961 22.8195 3.1328 22.8195 6.85974Z" fill="#F79E1B"/>
</g>
<defs>
<clipPath id="clip0_20_114">
<rect width="22.5875" height="13.5525" fill="white" transform="translate(0.232178 0.0834961)"/>
</clipPath>
</defs>
</svg>
