<svg width="41" height="12" viewBox="0 0 41 12" fill="none" xmlns="http://www.w3.org/2000/svg">
<g clip-path="url(#clip0_20_105)">
<path fill-rule="evenodd" clip-rule="evenodd" d="M4.38928 0.591154C4.74519 0.589089 5.80293 0.496681 6.25097 1.96345C6.55277 2.95148 7.03352 4.56991 7.69324 6.81877H7.96191C8.66936 4.44787 9.15537 2.82943 9.41994 1.96345C9.87259 0.481402 11.0044 0.591183 11.4571 0.591183L14.9498 0.591187V11.1302H11.3899V4.91936H11.1512L9.16674 11.1302H6.48839L4.50392 4.91476H4.26521V11.1302H0.705322V0.591187L4.38928 0.591154ZM20.0617 0.591187V6.8066H20.3457L22.7596 1.69571C23.2283 0.678629 24.2269 0.591187 24.2269 0.591187H27.6718V11.1302H24.0376V4.91476H23.7536L21.387 10.0256C20.9185 11.0382 19.8724 11.1302 19.8724 11.1302H16.4275V0.591187H20.0617ZM40.2334 5.59938C39.7264 6.99283 38.1345 7.99078 36.3719 7.99078H32.5607V11.1302H29.1048V5.59938H40.2334Z" fill="#0F754E"/>
<path fill-rule="evenodd" clip-rule="evenodd" d="M36.1464 0.589355H28.375C28.5599 2.71902 30.6858 4.54216 32.8865 4.54216H40.162C40.5819 2.77216 39.1366 0.589355 36.1464 0.589355Z" fill="url(#paint0_linear_20_105)"/>
</g>
<defs>
<linearGradient id="paint0_linear_20_105" x1="40.2334" y1="3.07584" x2="28.375" y2="3.07584" gradientUnits="userSpaceOnUse">
<stop stop-color="#1F5CD7"/>
<stop offset="1" stop-color="#02AEFF"/>
</linearGradient>
<clipPath id="clip0_20_105">
<rect width="39.9045" height="10.5408" fill="white" transform="translate(0.705322 0.589355)"/>
</clipPath>
</defs>
</svg>
