<svg width="15" height="14" viewBox="0 0 15 14" fill="none" xmlns="http://www.w3.org/2000/svg">
<g clip-path="url(#clip0_20_143)">
<path d="M8.58253 0.123291V7.09883C8.58253 7.41771 8.34334 7.6569 8.02445 7.6569H7.18738C7.14753 7.6569 7.10767 7.69673 7.10767 7.73656V13.5961C7.30697 13.5961 7.50627 13.6359 7.74543 13.6359C11.4923 13.6359 14.5217 10.6065 14.5217 6.85967C14.5217 3.39183 11.9307 0.521893 8.58253 0.123291ZM8.42305 10.5667C7.94473 10.5667 7.58599 10.1681 7.58599 9.72961C7.58599 9.25128 7.98459 8.89251 8.42305 8.89251C8.90139 8.89251 9.26015 9.29111 9.26015 9.72961C9.29998 10.1681 8.90139 10.5667 8.42305 10.5667ZM10.4161 10.5667C9.93778 10.5667 9.57901 10.1681 9.57901 9.72961C9.57901 9.25128 9.97761 8.89251 10.4161 8.89251C10.8944 8.89251 11.2531 9.29111 11.2531 9.72961C11.2531 10.1681 10.8944 10.5667 10.4161 10.5667ZM12.4091 10.5667C11.9307 10.5667 11.5721 10.1681 11.5721 9.72961C11.5721 9.25128 11.9706 8.89251 12.4091 8.89251C12.8874 8.89251 13.2462 9.29111 13.2462 9.72961C13.2462 10.1681 12.8874 10.5667 12.4091 10.5667Z" fill="#00985F"/>
<path d="M7.74549 0.0834961C3.99862 0.0834961 0.969238 3.11287 0.969238 6.85974C0.969238 10.1283 3.24127 12.8388 6.31052 13.4765V7.37791C6.31052 7.0989 6.54968 6.85974 6.8287 6.81988H7.10773H7.66577C7.70563 6.81988 7.74549 6.78002 7.74549 6.74016V0.0834961ZM6.4301 5.66392C5.95178 5.66392 5.59304 5.26532 5.59304 4.82686C5.59304 4.34854 5.99164 3.98979 6.4301 3.98979C6.90842 3.98979 7.26717 4.3884 7.26717 4.82686C7.26717 5.26532 6.90842 5.66392 6.4301 5.66392Z" fill="#00985F"/>
</g>
<defs>
<clipPath id="clip0_20_143">
<rect width="13.5525" height="13.5525" fill="white" transform="translate(0.969238 0.0834961)"/>
</clipPath>
</defs>
</svg>
