<svg width="31" height="13" viewBox="0 0 31 13" fill="none" xmlns="http://www.w3.org/2000/svg">
<g clip-path="url(#clip0_20_135)">
<path d="M14.6906 6.70931V10.2318H13.5333V1.52026H16.5422C17.2752 1.52026 17.9694 1.78543 18.5096 2.27781C19.0496 2.7323 19.3196 3.41409 19.3196 4.13374C19.3196 4.85339 19.0496 5.49727 18.5096 5.98966C17.9694 6.48204 17.3137 6.74721 16.5422 6.74721L14.6906 6.70931ZM14.6906 2.58083V5.61089H16.6193C17.0436 5.61089 17.468 5.45938 17.7381 5.15641C18.3552 4.58826 18.3552 3.64135 17.7766 3.07322L17.7381 3.03532C17.4294 2.7323 17.0436 2.54293 16.6193 2.58083H14.6906Z" fill="white"/>
<path d="M21.9813 4.09595C22.83 4.09595 23.4858 4.32321 23.9872 4.77774C24.4887 5.23227 24.7201 5.83826 24.7201 6.59581V10.2319H23.64V9.39866H23.6015C23.1386 10.0804 22.4828 10.4213 21.7113 10.4213C21.0555 10.4213 20.4769 10.2319 20.014 9.85312C19.5897 9.47432 19.3196 8.94412 19.3196 8.37597C19.3196 7.76994 19.5511 7.27756 20.014 6.89879C20.4769 6.52006 21.1327 6.36855 21.9042 6.36855C22.5985 6.36855 23.1386 6.48215 23.5629 6.74728V6.48215C23.5629 6.10339 23.4086 5.72465 23.1 5.49739C22.7914 5.23227 22.4056 5.08076 21.9813 5.08076C21.3255 5.08076 20.8241 5.34588 20.4769 5.87616L19.4739 5.27013C20.0911 4.47472 20.9012 4.09595 21.9813 4.09595ZM20.5154 8.41384C20.5154 8.71689 20.6698 8.98199 20.9012 9.13348C21.1712 9.32291 21.4798 9.43653 21.7884 9.43653C22.2514 9.43653 22.7143 9.24717 23.0614 8.90625C23.4471 8.56533 23.64 8.14872 23.64 7.69419C23.2929 7.42907 22.7914 7.27756 22.1356 7.27756C21.6727 7.27756 21.2869 7.39117 20.9783 7.61843C20.6698 7.80784 20.5154 8.07296 20.5154 8.41384Z" fill="white"/>
<path d="M30.9689 4.2854L27.15 12.8833H25.9928L27.4201 9.8911L24.9127 4.32325H26.1471L27.9601 8.60332H27.9987L29.7732 4.32325H30.9689V4.2854Z" fill="white"/>
<path d="M10.1004 5.95162C10.1004 5.6107 10.0618 5.26983 10.0232 4.92896H5.20129V6.86064H7.94011C7.82439 7.46667 7.47724 8.03481 6.93716 8.37569V9.6256H8.5959C9.56024 8.75448 10.1004 7.46667 10.1004 5.95162Z" fill="#4285F4"/>
<path d="M5.20118 10.8379C6.58989 10.8379 7.74712 10.3834 8.5958 9.62592L6.93705 8.37593C6.47415 8.67898 5.89551 8.86834 5.20118 8.86834C3.8896 8.86834 2.73238 7.99718 2.3466 6.78516H0.649292V8.07294C1.53654 9.77733 3.2724 10.8379 5.20118 10.8379Z" fill="#34A853"/>
<path d="M2.34662 6.78513C2.11514 6.17914 2.11514 5.49735 2.34662 4.85345V3.56567H0.649314C-0.0836254 4.96707 -0.0836254 6.63362 0.649314 8.07292L2.34662 6.78513Z" fill="#FBBC04"/>
<path d="M5.20114 2.80804C5.93408 2.80804 6.62841 3.07316 7.16849 3.56554L8.63432 2.12625C7.70854 1.29299 6.47411 0.800607 5.23971 0.838461C3.31097 0.838461 1.53649 1.89899 0.687866 3.6034L2.38517 4.89123C2.73233 3.67915 3.88956 2.80804 5.20114 2.80804Z" fill="#EA4335"/>
</g>
<defs>
<clipPath id="clip0_20_135">
<rect width="30.8695" height="12.0466" fill="white" transform="translate(0.0996094 0.836426)"/>
</clipPath>
</defs>
</svg>
