<svg width="39" height="10" viewBox="0 0 39 10" fill="none" xmlns="http://www.w3.org/2000/svg">
<g clip-path="url(#clip0_20_147)">
<path fill-rule="evenodd" clip-rule="evenodd" d="M3.93493 0.342285C3.2225 0.342285 2.37784 0.989794 1.68111 2.07838C0.954937 3.20578 0.521729 4.60148 0.521729 5.81353C0.521729 7.58788 1.575 9.37727 3.93513 9.37727C6.29242 9.37727 7.34853 7.58788 7.34853 5.81353C7.34853 4.60148 6.91552 3.20578 6.19285 2.07838C5.48959 0.989794 4.64502 0.342285 3.93493 0.342285ZM22.3664 3.00442H24.7558V8.89345H27.3158V3.00442H29.7042V0.82605H22.3664V3.00414V3.00442ZM35.1657 3.00442H38.9204V0.82605H35.1657C31.7162 0.82605 29.8739 2.44745 29.8739 4.85945C29.8739 7.27146 31.7162 8.89345 35.1657 8.89345H38.9204V6.71513H35.1657C33.5691 6.71513 32.5198 6.17568 32.5198 4.85973C32.5198 3.54379 33.5691 3.00442 35.1657 3.00442ZM17.1595 0.82605L15.7951 5.64112L14.4307 0.82605H9.90848V8.89345H12.4676V2.33165L14.3273 8.89345H17.2629L19.1237 2.32769V8.89345H21.6837V0.82605H17.1595Z" fill="#E30613"/>
</g>
<defs>
<clipPath id="clip0_20_147">
<rect width="38.3987" height="9.03499" fill="white" transform="translate(0.521729 0.342285)"/>
</clipPath>
</defs>
</svg>
