<svg width="29" height="30" viewBox="0 0 29 30" fill="none" xmlns="http://www.w3.org/2000/svg">
<path d="M11.6802 1.55125C13.3188 -0.179557 15.9938 -0.179557 17.6464 1.53803L18.6687 2.60823C19.0609 3.01927 19.5931 3.25562 20.1533 3.25562H21.5958C23.9207 3.25562 25.8113 5.23599 25.8113 7.67292V9.18645C25.8113 9.77219 26.0354 10.33 26.4276 10.7411L27.4359 11.7981C28.2342 12.6202 28.6684 13.7359 28.6684 14.9103C28.6824 16.0847 28.2482 17.2019 27.4639 18.0372L26.4276 19.1235C26.0354 19.5346 25.8113 20.0924 25.8113 20.6811V22.1917C25.8113 24.6286 23.9207 26.6119 21.5958 26.6119H20.1533C19.5931 26.6119 19.0609 26.8453 18.6687 27.2564L17.6604 28.3134C16.8341 29.181 15.7557 29.6052 14.6773 29.6052C13.5989 29.6052 12.5205 29.181 11.6942 28.3295L10.6718 27.2564C10.2797 26.8453 9.74751 26.6119 9.18731 26.6119H7.74479C5.41995 26.6119 3.52926 24.6286 3.52926 22.1917V20.6811C3.52926 20.0924 3.30518 19.5346 2.91304 19.1088L1.90467 18.0665C0.266078 16.3504 0.252073 13.545 1.89067 11.8142L2.91304 10.7411C3.30518 10.33 3.52926 9.77219 3.52926 9.1703V7.67292C3.52926 5.23599 5.41995 3.25562 7.74479 3.25562H9.18731C9.74751 3.25562 10.2797 3.01927 10.6718 2.60823L11.6802 1.55125ZM18.2766 17.4206C17.5904 17.4206 17.0442 17.9946 17.0442 18.6978C17.0442 19.4171 17.5904 19.9897 18.2766 19.9897C18.9488 19.9897 19.495 19.4171 19.495 18.6978C19.495 17.9946 18.9488 17.4206 18.2766 17.4206ZM19.1309 10.242C18.6547 9.7443 17.8845 9.7443 17.4083 10.242L10.2097 17.7876C9.73351 18.2867 9.73351 19.1088 10.2097 19.608C10.4338 19.8575 10.7419 19.9897 11.064 19.9897C11.4001 19.9897 11.7082 19.8575 11.9323 19.608L19.1309 12.0638C19.6071 11.5647 19.6071 10.7411 19.1309 10.242ZM11.078 9.87496C10.4058 9.87496 9.84555 10.4475 9.84555 11.1521C9.84555 11.8729 10.4058 12.444 11.078 12.444C11.7502 12.444 12.2964 11.8729 12.2964 11.1521C12.2964 10.4475 11.7502 9.87496 11.078 9.87496Z" fill="#FCA554"/>
</svg>
