<svg width="34" height="31" viewBox="0 0 34 31" fill="none" xmlns="http://www.w3.org/2000/svg">
<path d="M25.3029 0.583374C27.5135 0.583374 29.6401 1.45708 31.2045 3.02482C32.7706 4.58925 33.646 6.69935 33.646 8.90835V21.9316C33.646 26.5309 29.9039 30.2566 25.3029 30.2566H9.01725C4.41625 30.2566 0.675781 26.5309 0.675781 21.9316V8.90835C0.675781 4.30901 4.39977 0.583374 9.01725 0.583374H25.3029ZM27.1673 9.15563C26.8212 9.1375 26.4915 9.25454 26.2425 9.48533L18.8094 15.42C17.8533 16.2129 16.4834 16.2129 15.5124 15.42L8.09408 9.48533C7.58139 9.10617 6.87253 9.15563 6.44557 9.60073C6.00047 10.0458 5.95102 10.7547 6.32852 11.2492L6.54448 11.4635L14.0452 17.3158C14.9684 18.0411 16.0877 18.4367 17.2598 18.4367C18.4286 18.4367 19.5677 18.0411 20.4892 17.3158L27.9257 11.3646L28.0575 11.2328C28.4515 10.7547 28.4515 10.0623 28.0394 9.58424C27.8103 9.33861 27.4954 9.1886 27.1673 9.15563Z" fill="#FCA554"/>
</svg>
