<svg width="41" height="43" viewBox="0 0 41 43" fill="none" xmlns="http://www.w3.org/2000/svg">
<path d="M16.5858 2.44567C18.9267 -0.0269107 22.748 -0.0269106 25.1089 2.42679L26.5694 3.95564C27.1296 4.54285 27.8899 4.88049 28.6902 4.88049H30.7509C34.0721 4.88049 36.7731 7.70959 36.7731 11.1909V13.3531C36.7731 14.1899 37.0932 14.9868 37.6534 15.574L39.094 17.084C40.2344 18.2584 40.8546 19.8523 40.8546 21.53C40.8746 23.2078 40.2544 24.8037 39.134 25.997L37.6534 27.5489C37.0932 28.1361 36.7731 28.9331 36.7731 29.774V31.932C36.7731 35.4133 34.0721 38.2466 30.7509 38.2466H28.6902C27.8899 38.2466 27.1296 38.5801 26.5694 39.1673L25.1289 40.6773C23.9485 41.9167 22.4079 42.5228 20.8674 42.5228C19.3268 42.5228 17.7862 41.9167 16.6058 40.7003L15.1453 39.1673C14.5851 38.5801 13.8248 38.2466 13.0245 38.2466H10.9638C7.64256 38.2466 4.94159 35.4133 4.94159 31.932V29.774C4.94159 28.9331 4.62147 28.1361 4.06127 27.5279L2.62074 26.0389C0.279896 23.5873 0.259888 19.5796 2.60074 17.1071L4.06127 15.574C4.62147 14.9868 4.94159 14.1899 4.94159 13.33V11.1909C4.94159 7.70959 7.64256 4.88049 10.9638 4.88049H13.0245C13.8248 4.88049 14.5851 4.54285 15.1453 3.95564L16.5858 2.44567ZM26.0092 25.1162C25.0289 25.1162 24.2486 25.9362 24.2486 26.9407C24.2486 27.9684 25.0289 28.7863 26.0092 28.7863C26.9696 28.7863 27.7499 27.9684 27.7499 26.9407C27.7499 25.9362 26.9696 25.1162 26.0092 25.1162ZM27.2297 14.861C26.5494 14.15 25.449 14.15 24.7688 14.861L14.485 25.6405C13.8048 26.3535 13.8048 27.5279 14.485 28.241C14.8052 28.5975 15.2453 28.7863 15.7055 28.7863C16.1857 28.7863 16.6258 28.5975 16.9459 28.241L27.2297 17.4636C27.9099 16.7505 27.9099 15.574 27.2297 14.861ZM15.7255 14.3367C14.7651 14.3367 13.9649 15.1546 13.9649 16.1612C13.9649 17.1909 14.7651 18.0067 15.7255 18.0067C16.6858 18.0067 17.4661 17.1909 17.4661 16.1612C17.4661 15.1546 16.6858 14.3367 15.7255 14.3367Z" fill="white"/>
</svg>
