<svg width="34" height="28" viewBox="0 0 34 28" fill="none" xmlns="http://www.w3.org/2000/svg">
<path d="M17.8799 0.859009C18.4156 0.859009 18.8509 1.28183 18.8509 1.80378V5.76872C18.8509 6.40374 19.3929 6.93033 20.0466 6.93033C20.7162 6.93033 21.2423 6.40374 21.2423 5.76872V1.80378C21.2423 1.28183 21.6776 0.859009 22.2148 0.859009H27.4123C30.856 0.859009 33.646 3.56942 33.646 6.91484V10.8178C33.646 11.1276 33.5185 11.4219 33.2952 11.6387C33.072 11.8555 32.7691 11.9794 32.4503 11.9794C31.2705 11.9794 30.3139 12.9087 30.3139 14.0393C30.3139 15.1777 31.2593 16.1024 32.4279 16.1148C33.0864 16.1209 33.646 16.567 33.646 17.2067V21.1793C33.646 24.5232 30.856 27.2352 27.4123 27.2352H22.2148C21.6776 27.2352 21.2423 26.8124 21.2423 26.2904V22.945C21.2423 22.2945 20.7162 21.7834 20.0466 21.7834C19.3929 21.7834 18.8509 22.2945 18.8509 22.945V26.2904C18.8509 26.8124 18.4156 27.2352 17.8799 27.2352H6.90951C3.48176 27.2352 0.675781 24.5248 0.675781 21.1793V17.2067C0.675781 16.567 1.23538 16.1209 1.89383 16.1148C3.06405 16.1024 4.00788 15.1777 4.00788 14.0393C4.00788 12.9397 3.08318 12.1033 1.87151 12.1033C1.55265 12.1033 1.24973 11.9794 1.02653 11.7626C0.803326 11.5458 0.675781 11.2515 0.675781 10.9417V6.93033C0.675781 3.5911 3.48813 0.859009 6.92545 0.859009H17.8799ZM20.0466 10.2603C19.3929 10.2603 18.8509 10.7869 18.8509 11.4219V17.6171C18.8509 18.2521 19.3929 18.7787 20.0466 18.7787C20.7162 18.7787 21.2423 18.2521 21.2423 17.6171V11.4219C21.2423 10.7869 20.7162 10.2603 20.0466 10.2603Z" fill="#FCA554"/>
</svg>
